<svg width="320" height="320" viewBox="0 0 320 320" fill="none" xmlns="http://www.w3.org/2000/svg">
<path d="M160 320C117.565 320 76.8687 303.143 46.8629 273.137C16.8571 243.131 -1.18045e-06 202.435 0 160C1.18045e-06 117.565 16.8571 76.8687 46.8629 46.8629C76.8687 16.8571 117.565 -5.06028e-07 160 0L160 66.6684C135.247 66.6684 111.508 76.5015 94.0046 94.0046C76.5015 111.508 66.6684 135.247 66.6684 160C66.6684 184.753 76.5015 208.492 94.0046 225.995C111.508 243.499 135.247 253.332 160 253.332L160 320Z" fill="white"/>
<rect x="226.667" y="200" width="66.6667" height="66.6667" fill="white"/>
<rect x="160" y="133.333" width="66.6667" height="66.6667" fill="white"/>
<rect x="226.667" y="133.333" width="66.6667" height="66.6667" fill="white"/>
<rect x="160" width="66.6667" height="66.6667" fill="white"/>
<path d="M293.333 0L226.667 66.6667L226.667 0.000667956L293.333 0Z" fill="white"/>
</svg>
